<?xml version="1.0" encoding="utf-8"?>
<!-- Generator: Adobe Illustrator 28.1.0, SVG Export Plug-In . SVG Version: 6.00 Build 0)  -->
<svg version="1.1" id="Layer_1" xmlns="http://www.w3.org/2000/svg" xmlns:xlink="http://www.w3.org/1999/xlink" x="0px" y="0px"
	 viewBox="0 0 414.5 491.3" style="enable-background:new 0 0 414.5 491.3;" xml:space="preserve">
<path d="M139.3,391.1c-2.5-0.6-5.1-1.1-7.6-1.8c-13.6-3.6-24.5-11.4-33.8-21.6c-15.1-16.7-24.4-36.5-30.8-57.8
	c-8-26.8-11.8-54.3-9.8-82.2c2.9-40.9,31.3-76.2,69.8-84.9c17.4-3.9,34.3-1.8,50.9,4.5c6.6,2.5,13.3,4.6,19.9,7
	c4.1,1.5,8.1,1.5,12.2,0c11.1-3.9,22.1-8.5,33.5-11.1c33.9-7.6,62,3.2,84.7,29c3.2,3.7,6.1,7.8,9.4,12c-4.4,1.3-8.4,2.4-12.3,3.7
	c-25.2,8-42.3,33.1-40.4,59.4c1.9,27.5,22.2,50.1,48.9,54.4c2.8,0.5,5.6,1,9,1.6c-2.4,7.1-4.6,14-7.2,20.7
	c-6.8,17.5-15.8,33.7-29.3,47c-10.3,10.1-22.1,17.4-36.7,19.5c-0.3,0-0.5,0.3-0.8,0.5h-12.6c-12.3-1.4-23.3-6.7-34.6-11.3
	c-13.7-5.5-27.5-4.1-41,2.1c-5.8,2.7-11.7,4.9-17.8,6.9c-3.6,1.2-7.5,1.6-11.2,2.3L139.3,391.1L139.3,391.1z M323.7,315
	c-31.2-11-50.4-32.2-52.9-65.2c-2.5-32.9,13.1-56.9,41.8-72.6c-0.1-0.3-0.2-0.5-0.4-0.6c-0.2-0.3-0.4-0.5-0.7-0.7
	c-20.4-18.8-43.8-24.9-70.5-16.5c-8.9,2.8-17.7,6-26.5,9.1c-6.9,2.4-13.8,2.5-20.7,0c-8.8-3.1-17.7-6.1-26.5-9.2
	c-12.3-4.2-24.8-4.9-37.4-2C98,164.7,74.2,194.3,72,229c-1.9,30.7,2.9,60.6,13.9,89.4c6.1,16.1,14.3,31,26.8,43.1
	c11.1,10.7,24,16.6,39.8,14.4c7.6-1.1,14.7-3.6,21.5-7.1c10.8-5.4,22.2-7.7,34.2-7c10.3,0.6,19.7,4.1,28.9,8.5
	c17.9,8.4,35.5,9.1,52-3.6C306.6,353.5,316.1,334.8,323.7,315L323.7,315z"/>
<path d="M196.8,133.1c-0.5-23.3,1.9-45.5,19.8-62.9c9.9-9.7,22.3-14.4,35.7-16.3c8.2-1.2,16.6-1.3,24.9-1.9
	c2.2,28.1-5,58.4-31.4,72.4c-10.3,5.5-21.4,8-32.9,8.7C207.6,133.4,202.4,133.1,196.8,133.1L196.8,133.1z M211.8,118.5
	c14.9-1.2,28.6-4.6,38.7-16.3c8.5-9.8,11.3-21.7,12.1-34.4C228.6,69,213.2,89.8,211.8,118.5z"/>
<path d="M335.8,319c-8.2,21-18.4,40.7-37.2,54.8c-17.8,13.3-36.9,12.7-56.2,3.8c-10-4.6-20.1-8.3-31.3-8.9c-13-0.8-25.4,1.7-37,7.4
	c-7.4,3.6-15,6.3-23.3,7.5c-17.1,2.4-31-3.9-43-15.2c-13.6-12.8-22.4-28.6-29-45.6c-11.9-30.4-17.2-62-15-94.4
	c2.4-36.7,28.2-67.8,62.5-75.7c13.7-3.1,27.2-2.4,40.4,2.1c9.6,3.2,19.1,6.4,28.7,9.7c7.5,2.6,14.9,2.6,22.4,0
	c9.5-3.3,19-6.7,28.7-9.7c28.9-8.9,54.2-2.5,76.2,17.4c0.3,0.2,0.5,0.5,0.7,0.8c0.1,0.2,0.2,0.4,0.4,0.7
	c-31.1,16.6-47.9,41.9-45.2,76.7C281.4,284.9,302.1,307.3,335.8,319L335.8,319z"/>
<path d="M202.8,125.5c2-37,22.8-63.9,68.7-65.5c-1,16.4-4.8,31.8-16.3,44.5C241.5,119.6,222.9,124,202.8,125.5z"/>
</svg>
