<?xml version="1.0" encoding="UTF-8"?>
<svg id="Layer_1" data-name="Layer 1" xmlns="http://www.w3.org/2000/svg" viewBox="0 0 414.46 491.34">
  <defs>
    <style>
      .cls-1 {
        stroke-width: 0px;
      }
    </style>
  </defs>
  <path class="cls-1" d="M119.46,491.34c-3.68-.86-7.39-1.63-11.05-2.58-19.67-5.15-35.46-16.46-48.9-31.27-21.91-24.14-35.34-52.9-44.57-83.77C3.31,334.85-2.09,295.05.74,254.58c4.15-59.2,45.36-110.33,101.17-122.95,25.27-5.71,49.73-2.63,73.71,6.57,9.52,3.65,19.3,6.62,28.88,10.13,5.98,2.19,11.72,2.13,17.74.04,16.11-5.58,31.98-12.36,48.53-16.06,49.15-11,89.85,4.62,122.66,42.08,4.7,5.37,8.79,11.26,13.55,17.41-6.42,1.9-12.19,3.51-17.89,5.32-36.49,11.62-61.23,48-58.58,86.05,2.78,39.88,32.14,72.53,70.88,78.83,4.08.66,8.14,1.41,13.06,2.27-3.52,10.25-6.62,20.25-10.38,29.99-9.8,25.39-22.87,48.83-42.43,68.14-14.87,14.68-32,25.27-53.14,28.23-.42.06-.79.47-1.19.71h-18.21c-17.8-2.1-33.69-9.76-50.07-16.36-19.88-8-39.89-6-59.36,2.97-8.35,3.85-17.01,7.13-25.74,10.04-5.21,1.74-10.83,2.27-16.27,3.34h-18.21ZM386.57,380.98c-45.25-15.92-73.04-46.64-76.68-94.53-3.63-47.73,18.92-82.5,60.56-105.22-.2-.38-.32-.68-.51-.92-.3-.37-.64-.71-.99-1.04-29.55-27.27-63.49-36.04-102.19-23.84-12.92,4.07-25.65,8.75-38.43,13.25-10.02,3.53-19.97,3.55-30,.03-12.79-4.48-25.62-8.85-38.43-13.26-17.81-6.12-35.91-7.13-54.24-2.84-46,10.76-80.58,53.53-83.76,103.81-2.82,44.48,4.27,87.85,20.18,129.57,8.88,23.29,20.69,44.95,38.87,62.51,16.07,15.52,34.71,24.08,57.66,20.84,11.05-1.56,21.28-5.27,31.2-10.25,15.58-7.82,32.13-11.2,49.58-10.11,14.92.93,28.51,5.93,41.93,12.27,25.91,12.24,51.5,13.15,75.37-5.15,25.17-19.3,38.86-46.3,49.88-75.12Z"/>
  <path class="cls-1" d="M202.7,117.58c-.75-33.79,2.8-65.99,28.62-91.13,14.36-13.99,32.3-20.9,51.76-23.65,11.92-1.68,24.05-1.92,36.07-2.8,3.23,40.75-7.25,84.6-45.54,104.94-14.92,7.93-31.01,11.54-47.71,12.57-7.46.46-14.97.08-23.21.08ZM224.43,96.36c21.57-1.77,41.41-6.69,56.03-23.56,12.33-14.23,16.4-31.48,17.46-49.87-49.15,1.73-71.37,31.93-73.49,73.43Z"/>
  <path class="cls-1" d="M386.57,380.98c-11.03,28.81-24.72,55.81-49.88,75.12-23.87,18.31-49.46,17.4-75.37,5.15-13.42-6.34-27.01-11.33-41.93-12.27-17.45-1.09-34,2.29-49.58,10.11-9.92,4.98-20.15,8.69-31.2,10.25-22.95,3.24-41.59-5.31-57.66-20.84-18.18-17.56-29.99-39.22-38.87-62.51-15.91-41.72-23-85.09-20.18-129.57,3.18-50.28,37.76-93.05,83.76-103.81,18.33-4.29,36.43-3.28,54.24,2.84,12.82,4.4,25.65,8.77,38.43,13.26,10.03,3.52,19.98,3.5,30-.03,12.78-4.5,25.51-9.18,38.43-13.25,38.7-12.2,72.64-3.43,102.19,23.84.35.32.69.67.99,1.04.19.24.31.55.51.92-41.64,22.72-64.2,57.5-60.56,105.22,3.65,47.88,31.43,78.6,76.68,94.53Z"/>
  <path class="cls-1" d="M224.43,96.36c2.11-41.5,24.34-71.7,73.49-73.43-1.06,18.39-5.12,35.64-17.46,49.87-14.62,16.87-34.46,21.79-56.03,23.56Z"/>
</svg>