<?xml version="1.0" encoding="UTF-8"?>
<svg id="Layer_1" data-name="Layer 1" xmlns="http://www.w3.org/2000/svg" viewBox="0 0 243.33 164.19">
  <defs>
    <style>
      .cls-1 {
        fill: #fff;
        stroke-width: 0px;
      }
    </style>
  </defs>
  <path class="cls-1" d="M121.45,164.19c-36.93,0-73.86,0-110.79,0-8.33,0-10.66-2.32-10.66-10.67C0,106.87,0,60.21,0,13.56,0,3.6,3.6,0,13.52,0,85.63,0,157.74,0,229.85,0c9.88,0,13.47,3.62,13.47,13.61,0,46.65,0,93.3,0,139.96,0,8.32-2.34,10.63-10.71,10.63-37.05,0-74.11,0-111.16,0ZM216.79,16.44c-.19-.26-.37-.52-.56-.78H26.97c.67,1.64,1.82,2.42,2.79,3.39,25.6,25.57,51.36,50.98,76.63,76.87,5.43,5.57,10.78,8.39,18.49,7.51,2.99-.34,5.27-.87,7.5-3.11,27-27.16,54.12-54.22,81.22-81.29.97-.96,2.12-1.74,3.19-2.6ZM210.37,148.68c-17.35-17.38-34.8-34.85-52.44-52.52-4.46,4.47-9.6,8.91-13.85,14.08-5.49,6.67-11.95,8.94-20.56,8.57-19.08-.8-13.16,1.94-26.81-11.35-3.98-3.88-7.84-7.89-11.17-11.23-17.82,17.81-35.23,35.21-52.48,52.46h177.31ZM15.59,27.27v115.13c19.29-19.28,38.58-38.56,57.57-57.54-19.06-19.06-38.32-38.33-57.57-57.59ZM227.94,26.97c-19.53,19.53-38.8,38.79-57.48,57.47,19.13,19.12,38.44,38.43,57.48,57.46V26.97Z"/>
</svg>