<?xml version="1.0" encoding="UTF-8"?>
<svg id="Layer_1" data-name="Layer 1" xmlns="http://www.w3.org/2000/svg" viewBox="0 0 43.84 43.83">
  <defs>
    <style>
      .cls-1 {
        fill: #fff;
        stroke-width: 0px;
      }
    </style>
  </defs>
  <path class="cls-1" d="M32.77,26.7c.22-1.36.43-2.7.66-4.11-.2,0-.36,0-.53,0-1.33,0-2.65,0-3.98,0-.81,0-1.13-.32-1.13-1.14,0-1.5-.06-3,.03-4.49.1-1.78,1.2-2.73,2.97-2.73.87,0,1.75,0,2.62,0h.57v-3.86c-.55-.07-1.11-.16-1.68-.2-2.06-.16-4.08,0-5.99.88-1.93.88-2.95,2.34-2.91,4.53.04,1.95.01,3.9,0,5.85,0,.84-.32,1.16-1.16,1.16-1.19,0-2.37,0-3.56,0-.17,0-.33,0-.53,0v4.11c.43,0,.85,0,1.26,0,.97,0,1.93,0,2.9,0,.71,0,1.08.36,1.08,1.06,0,5.02,0,10.05,0,15.07,0,.63-.36.98-.98.98-3.73,0-7.46.03-11.18,0C5.11,43.75.06,38.71.03,32.57c-.04-7.1-.04-14.19,0-21.29C.06,5.11,5.11.06,11.28.03c7.1-.04,14.19-.04,21.29,0,6.14.03,11.2,5.08,11.23,11.22.04,7.11.04,14.23,0,21.34-.04,6.14-5.09,11.15-11.24,11.23-1.26.02-2.53,0-3.79,0-.63,0-1.01-.39-1.01-1.02,0-4.82.02-9.64.03-14.46,0-.16,0-.31,0-.47,0-.84.32-1.16,1.16-1.17,1.26,0,2.52,0,3.82,0ZM29.69,42.01c1.46-.06,2.9.02,4.28-.22,4.76-.82,7.97-4.72,7.97-9.54,0-6.89,0-13.79,0-20.68,0-.56-.03-1.13-.12-1.68-.83-4.73-4.72-8-9.53-8-6.91,0-13.82,0-20.73,0-.56,0-1.13.03-1.68.13C5.16,2.86,1.89,6.75,1.89,11.56c0,6.91,0,13.82,0,20.73,0,.57.03,1.16.14,1.72.89,4.75,4.74,7.93,9.58,7.94,3.13,0,6.27,0,9.4,0h.5v-13.37c-.18,0-.33,0-.48,0-1.2,0-2.4,0-3.6,0-.85,0-1.16-.31-1.16-1.15,0-1.84,0-3.68,0-5.52,0-.86.32-1.17,1.2-1.17,1.19,0,2.37,0,3.56,0,.16,0,.33,0,.52,0,0-1.82-.01-3.56,0-5.31,0-.53.04-1.06.15-1.58.46-2.18,1.86-3.6,3.82-4.47,3.07-1.36,6.26-1.35,9.49-.68.64.13.87.42.87,1.08,0,1.75,0,3.49,0,5.24,0,.77-.34,1.1-1.12,1.1-1.33,0-2.65,0-3.98,0-.77,0-1.07.22-1.1,1-.05,1.09-.01,2.18-.01,3.27,0,.1.03.21.04.34.19,0,.36,0,.53,0,1.37,0,2.75,0,4.12,0,.74,0,1.18.44,1.08,1.09-.3,1.96-.61,3.91-.92,5.86-.06.4-.25.71-.65.84-.17.06-.37.05-.55.05-1.2,0-2.39,0-3.62,0v13.43Z"/>
</svg>