<?xml version="1.0" encoding="UTF-8"?>
<svg id="Layer_1" data-name="Layer 1" xmlns="http://www.w3.org/2000/svg" viewBox="0 0 640.71 640.98">
  <defs>
    <style>
      .cls-1 {
        stroke-width: 0px;
      }
    </style>
  </defs>
  <path class="cls-1" d="M233.61,12.87c-54.4,149.5-108.46,298.07-163.02,447.99,4.68,0,8.25,0,11.82,0,16.34,0,32.68-.24,49.01.14,5.33.12,7.6-1.79,9.34-6.61,20.07-55.58,40.34-111.1,60.57-166.63,7.24-19.88,14.42-39.78,21.88-59.57.81-2.15,3.25-5.19,5-5.24,15.6-.41,31.22-.24,47.97-.24-28.95,79.53-57.59,158.22-86.52,237.72,3.28.18,5.49.41,7.7.41,17.49.03,34.98-.22,52.47.15,5.52.12,7.94-1.55,9.85-6.85,23.7-65.76,47.69-131.42,71.57-197.12,2.98-8.21,6.33-16.35,8.45-24.79,7.06-28.05-10-50.52-38.95-51.28-17.25-.45-34.52-.1-51.78-.11-2.49,0-4.97,0-8.6,0,3.91-11.01,7.43-21.14,11.09-31.22,17.22-47.32,34.56-94.6,51.61-141.99,1.88-5.23,4.08-7.45,10.06-7.57,157.36-3.03,292.94,107.04,322.01,261.67,32.66,173.7-82.15,341.49-255.64,373.79-22.24,4.14-44.57,6.1-68.18,5.28.73-2.69,1.15-4.83,1.89-6.85,20.3-55.99,40.68-111.95,60.84-167.99,1.58-4.38,4.01-5.2,8.15-5.18,27.38.15,54.77.17,82.16.04,18.49-.09,34.68-11.36,40.95-28.55,23.41-64.16,46.84-128.31,69.9-192.59,2.51-6.99,4.15-14.87,3.75-22.2-1.2-21.98-17.82-36.3-41.46-36.58-21.17-.25-42.34-.06-63.52-.06-19.33,0-38.66.12-57.99-.09-4.37-.05-6.34,1.38-7.86,5.58-30.99,85.63-62.15,171.19-93.29,256.76-22.41,61.58-44.85,123.16-67.28,184.73-.46,1.26-1.09,2.47-1.61,3.64C134.56,609.34,6.39,501.29.22,331.9-5.88,164.26,114.39,42.46,233.61,12.87Z"/>
  <path class="cls-1" d="M512.33,223.76c-3.06,8.08-5.73,15.35-8.56,22.57-21.23,54.16-42.55,108.3-63.66,162.51-1.68,4.33-3.77,5.98-8.51,5.89-15.36-.31-30.72-.12-46.84-.12.74-2.61,1.07-4.36,1.72-6,23.35-59.51,46.8-118.98,69.97-178.56,1.93-4.96,4.39-6.51,9.53-6.4,15.13.32,30.28.12,46.35.12Z"/>
</svg>