<?xml version="1.0" encoding="UTF-8"?>
<svg id="Layer_1" data-name="Layer 1" xmlns="http://www.w3.org/2000/svg" viewBox="0 0 510.78 512">
  <defs>
    <style>
      .cls-1 {
        fill: #fff;
        stroke-width: 0px;
      }
    </style>
  </defs>
  <path class="cls-1" d="M332.78,512h-154c-3.13-.27-6.26-.71-9.39-.79-20.49-.52-40.94-1.33-60.97-6.24-42.1-10.33-73.44-34.27-92.11-73.74-11.53-24.4-15.11-50.63-15.39-77.27C.32,298.5-.29,243.04.15,187.59c.19-23.24,1.59-46.67,5-69.64C10.48,82.16,27.75,52.45,57.04,30.5,82.15,11.69,111.21,4.21,141.94,2.04c12.27-.87,24.56-1.37,36.84-2.04,51,0,102,0,153,0,11.94.66,23.89,1.29,35.83,1.99,20.9,1.23,41.37,4.84,60.55,13.46,47.06,21.17,71.86,58.88,79.58,108.88,1.36,8.83,2.05,17.77,3.04,26.66v206c-.28,1.78-.63,3.56-.82,5.36-1.08,10.07-1.59,20.24-3.28,30.21-5.43,32.13-19.16,59.99-43.83,81.87-26.74,23.72-58.93,33.18-93.77,35.54-12.09.82-24.2,1.35-36.3,2.02ZM255.83,466.75c0-.26.01-.53.02-.79,13.5,0,27.01.4,40.49-.08,28.95-1.04,58.04-1.05,86.78-4.19,39.15-4.29,67.17-29.51,76-67.15,3.69-15.74,5.09-32.28,5.41-48.5.93-47.48,1.25-94.98.88-142.47-.19-24.78-.99-49.71-3.9-74.29-4.88-41.12-30.82-69.06-71.29-77.11-17.67-3.51-36.03-4.61-54.11-4.87-47.98-.7-95.99-.79-143.97-.23-22.27.26-44.73,1.07-66.71,4.29-39.02,5.71-65.56,31.11-73.48,69.72-3.42,16.68-4.57,34.01-4.93,51.08-.88,41.15-1.2,82.32-.75,123.48.32,28.79,1.05,57.68,3.85,86.3,2.85,29.11,16.73,52.84,42.71,68,16.16,9.43,34.13,13.33,52.59,13.98,36.8,1.29,73.61,1.93,110.42,2.84Z"/>
  <path class="cls-1" d="M124.18,255.93c.11-72.63,59.32-131.65,131.79-131.35,72.85.3,131.68,59.4,131.23,131.83-.45,72.71-59.11,131.24-131.46,131.18-72.62-.07-131.66-59.16-131.56-131.65ZM255.28,341.25c47.24.22,85.36-37.45,85.66-84.64.3-47.22-37.35-85.43-84.52-85.78-47.42-.36-85.71,37.48-85.91,84.89-.2,47.17,37.6,85.31,84.77,85.53Z"/>
  <path class="cls-1" d="M423.05,119.58c-.12,17.12-13.92,30.62-31.1,30.42-16.73-.2-30.26-14.06-30.17-30.92.1-16.86,13.74-30.36,30.67-30.34,17.21.01,30.71,13.63,30.6,30.85Z"/>
</svg>