<?xml version="1.0" encoding="UTF-8"?>
<svg id="Layer_1" data-name="Layer 1" xmlns="http://www.w3.org/2000/svg" viewBox="0 0 245.79 211.13">
  <defs>
    <style>
      .cls-1 {
        fill: #fff;
        stroke-width: 0px;
      }
    </style>
  </defs>
  <path class="cls-1" d="M123.79,27.8c2.44-2.62,4.85-5.5,7.56-8.06C150.91,1.25,173.92-4.6,199.39,3.67c25.36,8.23,40.75,26.49,45.3,52.79,3.82,22.05-2.36,41.83-18.21,57.65-31.35,31.3-63.18,62.11-94.85,93.08-5.4,5.28-11.83,5.24-17.26-.07-31.49-30.8-63.26-61.33-94.31-92.56C.55,94.94-4.86,70.87,4.4,44.85,13.67,18.85,33.11,3.86,60.57.66c20.41-2.38,38.39,4.11,53.41,18.33,2.9,2.74,5.71,5.57,8.57,8.36.08.08.22.09,1.25.45h0ZM122.89,183.27c.58-.43,1.01-.67,1.35-1,28.79-28.21,57.64-56.36,86.29-84.7,7.64-7.56,11.53-17.15,12-27.89.82-18.87-9.48-35.45-26.31-42.83-16.6-7.28-35.66-3.58-49.05,9.58-5.07,4.99-10.04,10.08-15.1,15.08-5.82,5.74-12.29,5.74-18.07.03-5.41-5.35-10.67-10.87-16.18-16.11-17.73-16.84-45.24-16.16-62.28,1.43-16.64,17.18-16.11,45.06,1.2,62.04,20.04,19.66,40.09,39.32,60.14,58.97,8.63,8.45,17.28,16.88,26,25.4h.01Z"/>
</svg>