<?xml version="1.0" encoding="UTF-8"?>
<svg id="Layer_1" data-name="Layer 1" xmlns="http://www.w3.org/2000/svg" viewBox="0 0 408.8 408.75">
  <defs>
    <style>
      .cls-1 {
        fill: #fff;
        stroke-width: 0px;
      }
    </style>
  </defs>
  <path class="cls-1" d="M376.86,408.75c-.34-40.96-13.07-77.65-39.24-109.16-29.04-34.97-66.18-56.29-111.57-61.75-52.47-6.31-98.64,8.37-137.8,43.91-32.12,29.14-50.31,65.65-55.32,108.69-.71,6.06-.68,12.2-.99,18.31H0c0-3.99,0-7.98,0-11.98,1.05-7.87,1.83-15.79,3.2-23.6,7.54-43,27.13-79.72,58.16-110.33,20.93-20.65,45.26-36.04,72.92-46.12.84-.31,1.64-.74,2.81-1.27-33.3-25.06-51.21-57.83-50.67-99.51.42-32.05,12.46-59.68,35.38-82.06,48.3-47.15,122.33-43.66,166.88,1.52,49.65,50.35,45.08,137.19-16.12,179.57,85.14,36.52,132.98,99.4,136.25,193.77h-31.94ZM204.04,204.34c47.21.32,86.07-38.13,86.57-85.66.5-47.3-38.24-86.45-85.86-86.78-47.21-.32-86.07,38.13-86.57,85.66-.5,47.3,38.24,86.45,85.86,86.78Z"/>
</svg>