<?xml version="1.0" encoding="UTF-8"?>
<svg id="Layer_1" data-name="Layer 1" xmlns="http://www.w3.org/2000/svg" viewBox="0 0 114.33 126.28">
  <defs>
    <style>
      .cls-1 {
        fill: #fff;
        stroke-width: 0px;
      }
    </style>
  </defs>
  <path class="cls-1" d="M78.23,49.94c0,.49,0,.99,0,1.48-.01,12.4.13,24.81-.07,37.21-.31,19.18-15.82,35.69-34.91,37.45-21.28,1.96-39.49-12.23-42.81-33.35-3.2-20.41,11.38-40.6,31.8-43.96,2.17-.36,4.38-.5,6.58-.6,2.12-.09,3.29,1.05,3.3,3.14.03,5.87.03,11.75,0,17.62-.01,2.13-1.14,3.16-3.39,3.26-7.92.35-13.88,6.1-14.57,14.08-.63,7.23,4.49,13.98,11.87,15.65,8.85,2,17.7-4.75,18.13-13.86.03-.7.03-1.41.03-2.11,0-27.25,0-54.51,0-81.76,0-3.3.89-4.2,4.16-4.2,5.36,0,10.71,0,16.07,0,2.76,0,3.72.93,3.83,3.68.66,15.8,10.98,28.31,26.21,31.65,2.09.46,4.27.59,6.42.74,2.37.16,3.43,1.13,3.43,3.51.02,5.69.02,11.37,0,17.06,0,2.46-1.09,3.5-3.55,3.48-11.34-.1-21.71-3.35-31.16-9.59-.31-.21-.63-.41-.95-.6-.06-.04-.18,0-.42.02ZM60.19,6v1.88c0,15.46,0,30.92,0,46.38,0,11.23.11,22.46-.06,33.69-.16,10.73-8.77,19.54-19.47,20.29-10.66.75-20.28-6.69-22.21-17.17-1.94-10.51,4.35-20.86,14.57-23.99,1.02-.31,2.49-.29,2.95-.97.53-.79.18-2.17.18-3.3,0-2.81,0-5.61,0-8.49-.69.05-1.21.06-1.72.13-18.5,2.52-31.46,20.73-27.77,39.01,3.62,17.92,20.29,29.38,38.32,26.34,14.14-2.39,25.69-14.52,26.94-28.73.49-5.6.28-11.26.31-16.9.04-10.1.02-20.21,0-30.31,0-1.51.47-2.67,1.92-3.28,1.49-.63,2.61.09,3.69,1.03,6.44,5.58,13.8,9.38,22.11,11.22,2.71.6,5.49.91,8.3,1.36v-12.14c-.58-.09-1.09-.18-1.6-.24-10.67-1.37-19.37-6.28-26.05-14.67-4.65-5.83-7.33-12.51-8.14-19.93-.05-.43-.51-1.15-.8-1.15-3.75-.08-7.5-.05-11.48-.05Z"/>
</svg>