<?xml version="1.0" encoding="UTF-8"?>
<svg id="Layer_1" data-name="Layer 1" xmlns="http://www.w3.org/2000/svg" viewBox="0 0 363.21 363.31">
  <defs>
    <style>
      .cls-1 {
        fill: #fff;
        stroke-width: 0px;
      }
    </style>
  </defs>
  <path class="cls-1" d="M.06,181.6c0-33.56-.08-67.13.02-100.69C.19,44.75,21.66,14.37,55.02,4.04,62.99,1.58,71.64.25,79.99.21,147.73-.09,215.47,0,283.21.06c40.9.04,73.93,29.05,79.37,69.6.51,3.82.58,7.72.58,11.58.03,66.88.08,133.75,0,200.63-.05,37.46-22.5,68.2-57.44,78.01-7.93,2.22-16.46,3.16-24.72,3.19-66.24.25-132.49-.13-198.73.24-41.79.23-70.97-27.31-79-57.78-2.07-7.86-2.99-16.22-3.08-24.36C-.14,247.98.06,214.79.06,181.6ZM344.46,181.58c0-33.19.02-66.39-.03-99.58,0-3.98-.05-8.03-.73-11.94-5.34-30.77-29.82-51.28-61.1-51.29-67.38-.02-134.76-.02-202.14.02-3.48,0-7.02.09-10.44.69-30.73,5.4-51.18,29.75-51.21,61.19-.08,67.26-.08,134.53.07,201.79.01,5.92.71,12.02,2.28,17.72,7.42,27.01,30.94,44.23,60.41,44.27,66.63.1,133.26.1,199.89-.07,6.29-.02,12.78-.72,18.83-2.38,26.81-7.36,44.07-30.91,44.14-59.72.08-33.57.02-67.14.02-100.71Z"/>
  <path class="cls-1" d="M195.48,149.36c16.84-20.99,33.46-41.71,50.08-62.43,5.93-7.39,11.81-14.84,17.85-22.14,3.22-3.89,7.72-4.68,11.75-2.47,3.86,2.11,5.86,6.64,4.42,10.85-.63,1.83-1.85,3.52-3.08,5.06-22.13,27.66-44.31,55.29-66.47,82.92-.78.97-1.52,1.96-2.5,3.24.8,1.06,1.58,2.14,2.41,3.17,31.45,39.21,62.9,78.44,94.39,117.62,2.78,3.46,4.35,7.04,2.4,11.34-2.03,4.47-5.91,5.61-10.5,5.6-16.97-.06-33.94-.11-50.9.03-4.67.04-7.99-1.7-10.88-5.31-21.31-26.72-42.73-53.35-64.12-80.01-.77-.96-1.57-1.9-2.51-3.05-10.78,13.43-21.39,26.66-32,39.88-11.71,14.59-23.44,29.17-35.12,43.79-2.51,3.14-5.49,5.16-9.64,4.46-7.4-1.26-10.23-9.41-5.37-15.63,5.92-7.57,11.99-15.01,18-22.5,16.55-20.63,33.07-41.28,49.71-61.83,1.88-2.32,2.14-3.73.11-6.24-31.56-39.13-62.97-78.38-94.47-117.55-2.87-3.57-4.55-7.22-2.46-11.65,2.1-4.44,6.03-5.46,10.6-5.43,16.72.08,33.44.15,50.15-.04,5.11-.06,8.67,1.79,11.81,5.74,21.37,26.83,42.88,53.56,64.34,80.31.54.68,1.13,1.31,1.99,2.3ZM84.68,79.8c.89,1.26,1.27,1.87,1.72,2.44,22.54,28.11,45.09,56.22,67.63,84.33,30.58,38.13,61.16,76.25,91.78,114.35.79.99,2.02,2.3,3.06,2.32,9.67.18,19.34.11,29.71.11-1.14-1.54-1.81-2.52-2.55-3.44-13.41-16.73-26.83-33.46-40.25-50.19-39.48-49.21-78.95-98.43-118.48-147.6-.83-1.03-2.3-2.18-3.49-2.2-9.45-.18-18.9-.1-29.13-.1Z"/>
</svg>