<?xml version="1.0" encoding="UTF-8"?>
<svg id="Layer_1" data-name="Layer 1" xmlns="http://www.w3.org/2000/svg" viewBox="0 0 235.57 164.9">
  <defs>
    <style>
      .cls-1, .cls-2 {
        stroke-width: 0px;
      }

      .cls-2 {
        fill: #fff;
      }
    </style>
  </defs>
  <polygon class="cls-2" points="9.57 8.07 223.81 9.69 228.38 154.04 12.26 155.92 9.57 8.07"/>
  <path class="cls-2" d="M0,11.31c0-.08.02-.16.05-.23.84-1.82,1.46-3.81,2.61-5.41C5.61,1.54,9.83.06,14.85.07c29.51.06,59.02.03,88.53.03,38.86,0,77.72.14,116.58-.1,9.66-.06,15.66,6.41,15.61,15.68-.21,44.85-.09,89.7-.1,134.54,0,7.19-3.56,12.32-9.77,14.09-1.43.41-2.91.55-4.4.55-68.9.02-137.79,0-206.69.04-7.77,0-12.31-3.95-14.59-11.02-.02-.06-.03-.12-.03-.19C0,106.24,0,58.78,0,11.31ZM221.48,150.61V14.47c0-.31-.25-.57-.57-.57H14.33c-.31,0-.57.25-.57.57v136.14c0,.31.25.57.57.57h206.59c.31,0,.57-.25.57-.57Z"/>
  <path class="cls-1" d="M201.92,51.55c2.42,20.69,4.81,41.12,7.25,61.96-2.79,0-5.44,0-8.09,0-2.22,0-4.45-.08-6.66.02-1.54.07-2.13-.42-2.21-2.04-.18-3.82-.63-7.63-.85-11.45-.07-1.3-.55-1.72-1.8-1.7-3.6.05-7.2-.07-10.8.08-.76.03-1.82.75-2.16,1.43-1.96,3.98-3.7,8.06-5.63,12.06-.33.67-1.23,1.5-1.89,1.52-5.2.12-10.4.07-15.98.07.41-.94.68-1.6.99-2.25,9.36-19.26,18.75-38.51,28.07-57.8.7-1.45,1.52-1.97,3.12-1.94,5.43.1,10.86.04,16.63.04ZM190.34,85.13c-.41-4.66-.81-9.05-1.2-13.44-.13-.02-.26-.04-.39-.06-2.04,4.46-4.07,8.91-6.17,13.5h7.76Z"/>
  <path class="cls-1" d="M33.47,63.48c4.34,2.7,8.31,5.16,12.28,7.63.1-.15.21-.31.31-.46-7.82-6.19-15.63-12.38-23.86-18.9h27.13c1.19,12.82,2.4,25.74,3.67,39.37.59-1.18.92-1.79,1.21-2.41,5.51-11.78,11.04-23.55,16.47-35.36.65-1.42,1.42-1.87,2.93-1.84,5.12.09,10.25.03,15.82.03-.42.92-.67,1.57-.99,2.19-9.95,19.31-19.93,38.61-29.84,57.95-.69,1.35-1.45,1.88-2.98,1.85-4.96-.1-9.93-.04-15.16-.04-2.32-16.64-4.62-33.11-6.98-50.01Z"/>
  <path class="cls-1" d="M110.3,108.97c1.79-4.41,3.57-8.77,5.21-12.81,3.73,1.25,7.18,2.85,10.79,3.48,2.74.48,5.83.2,8.52-.57,3.5-1,4.13-4.94,1.22-7.2-2.77-2.15-5.91-3.81-8.87-5.7-3.82-2.45-7.01-5.49-8.48-9.93-2.3-6.92.22-14.97,6.12-19.86,8.29-6.87,24.51-7.78,33.79-1.75-1.65,4.43-3.32,8.91-4.97,13.34-2.69-.91-5.2-2.21-7.83-2.52-2.79-.33-5.83-.18-8.52.6-3.12.9-3.53,3.97-.95,5.98,2.46,1.92,5.24,3.43,7.9,5.07,4.53,2.81,8.42,6.18,9.84,11.59,2.26,8.57-1.64,17.92-10.05,22.07-10.85,5.36-21.87,4.91-32.57-.89-.39-.21-.71-.55-1.18-.92Z"/>
  <path class="cls-1" d="M85.77,113.51c3.96-20.84,7.84-41.29,11.73-61.83h16.12c-1.17,6.21-2.31,12.28-3.45,18.35-2.54,13.47-5.15,26.92-7.58,40.41-.43,2.4-1.22,3.3-3.77,3.15-4.19-.25-8.4-.07-13.05-.07Z"/>
</svg>