<?xml version="1.0" encoding="UTF-8"?>
<svg id="Layer_1" data-name="Layer 1" xmlns="http://www.w3.org/2000/svg" viewBox="0 0 635.8 638.5">
  <defs>
    <style>
      .cls-1 {
        fill: #fff;
        stroke-width: 0px;
      }
    </style>
  </defs>
  <path class="cls-1" d="M0,638.5c6.8-24.83,13.3-48.48,19.77-72.14,7.88-28.83,15.85-57.65,23.45-86.56.79-3.02.35-7.14-1.13-9.87C-22.8,350.52-7.44,208.18,82.79,106.33,137.75,44.31,207.23,8.7,289.91,1.33c139.67-12.46,266.06,63.75,321.29,192.4,52.69,122.76,18.66,271.71-82.06,359.49-62.16,54.17-134.4,81.11-216.83,79.83-49.55-.77-96.31-13.16-140.32-36.05-2.58-1.34-6.45-1.52-9.33-.77-51.88,13.4-103.7,27.02-155.53,40.59-1.9.5-3.83.91-7.12,1.69ZM76.05,563.23c2.06-.45,3.09-.64,4.1-.91,28.7-7.52,57.44-14.89,86.06-22.68,6.41-1.74,11.43-1.18,17.37,2.25,77.27,44.59,157.88,51.22,239.8,15.85,113.66-49.07,174.87-164.64,154.78-287.43-19.45-118.89-125.45-212.38-246.14-216.89-66.67-2.49-126.66,16.42-178.34,58.77-59.69,48.91-92.31,112.51-97.11,189.55-3.57,57.27,11.02,110.25,42.25,158.48,2.76,4.26,3.34,7.96,1.94,12.91-8.35,29.62-16.32,59.34-24.72,90.1Z"/>
  <path class="cls-1" d="M216.17,170.75c14.51-3.79,20.88,4.86,25.62,17.18,7.08,18.38,14.83,36.51,22.64,54.6,2.74,6.34,2.69,11.96-1.45,17.48-6.38,8.51-12.54,17.2-19.26,25.43-4.31,5.27-4.47,10.01-1.07,15.73,25.79,43.42,61.79,74.88,108.81,93.62,6.44,2.57,11.58,1.63,15.94-3.81,7.9-9.86,16.15-19.45,23.7-29.57,4.39-5.88,9.49-8.21,16.03-5.16,22.65,10.58,45.23,21.34,67.62,32.46,2.35,1.17,4.57,5.18,4.64,7.93.66,23.5-6.14,43.24-27.23,56.89-25.77,16.67-52.79,18.39-81.51,10.39-72.13-20.09-126.86-64.14-170.82-123.26-15.79-21.24-30.94-42.85-37.71-68.93-8.21-31.62-3.23-60.47,18.41-85.93,9.43-11.09,20.07-18.06,35.63-15.04Z"/>
</svg>